<?xml version="1.0" standalone="no"?>
<!DOCTYPE svg PUBLIC "-//W3C//DTD SVG 20010904//EN"
 "http://www.w3.org/TR/2001/REC-SVG-20010904/DTD/svg10.dtd">
<svg version="1.0" xmlns="http://www.w3.org/2000/svg"
 width="500.000000pt" height="500.000000pt" viewBox="0 0 500.000000 500.000000"
 preserveAspectRatio="xMidYMid meet">
<metadata>
Created by potrace 1.14, written by Peter Selinger 2001-2017
</metadata>
<g transform="translate(0.000000,500.000000) scale(0.100000,-0.100000)"
fill="#000000" stroke="none">
<path d="M2118 4855 c-2 -2 -38 -5 -81 -7 -42 -2 -77 -5 -77 -8 0 -3 -8 -6
-17 -7 -43 -3 -63 -8 -63 -14 0 -4 -8 -6 -17 -4 -10 1 -24 -2 -30 -8 -7 -5
-13 -7 -13 -4 0 14 -159 -62 -194 -92 -10 -9 -21 -15 -25 -14 -3 1 -21 -11
-38 -27 -18 -15 -33 -26 -33 -22 0 7 -141 -138 -155 -159 -5 -9 -26 -41 -46
-71 -20 -30 -40 -65 -44 -79 -4 -13 -14 -32 -23 -41 -8 -10 -12 -18 -7 -18 4
0 2 -7 -5 -15 -7 -8 -10 -15 -7 -15 3 0 -1 -16 -9 -35 -8 -19 -12 -35 -9 -35
3 0 1 -9 -6 -21 -6 -12 -12 -35 -13 -52 -1 -18 -4 -37 -8 -42 -7 -12 -2 -245
7 -290 3 -16 6 -41 8 -55 l2 -25 -145 -2 c-80 -1 -156 -4 -170 -6 -111 -18
-204 -79 -268 -175 -20 -31 -39 -64 -41 -72 -2 -8 -7 -28 -12 -45 -11 -36 -6
-2497 5 -2544 4 -19 18 -58 31 -88 13 -29 23 -54 22 -56 -3 -4 39 -52 100
-115 35 -35 63 -60 63 -56 0 4 8 0 18 -8 9 -9 38 -26 64 -38 79 -37 60 -54
-71 -66 -30 -3 -84 -11 -120 -19 -36 -7 -69 -11 -72 -9 -4 2 -10 0 -14 -6 -3
-5 -16 -10 -29 -10 -35 0 -59 -31 -47 -61 5 -13 10 -20 10 -16 1 4 9 3 19 -2
35 -19 202 -49 300 -54 6 0 12 -4 12 -9 0 -5 8 -4 19 1 10 6 21 8 24 5 3 -3
32 -7 64 -9 32 -2 90 -6 128 -10 76 -6 192 -14 325 -20 47 -3 130 -7 185 -10
55 -3 152 -7 216 -8 63 -2 120 -7 126 -10 7 -4 14 -3 18 3 4 6 11 7 17 4 15
-10 908 -11 908 -1 0 4 8 3 19 -2 10 -6 21 -8 24 -5 3 3 90 8 194 10 305 8
489 16 631 29 31 3 91 8 132 10 107 7 176 15 280 30 14 2 43 6 65 10 23 3 52
8 65 11 14 3 38 8 55 11 31 5 85 39 85 52 0 11 -26 32 -42 35 -7 1 -17 4 -23
7 -9 6 -39 12 -110 24 -42 8 -123 16 -190 21 -38 2 -92 7 -120 9 -27 3 -95 7
-149 10 -54 2 -103 8 -109 14 -6 6 14 20 57 40 36 17 66 35 66 40 0 5 9 12 19
16 21 6 58 41 93 87 13 16 28 35 34 42 21 22 62 111 80 171 14 48 17 103 19
283 0 127 5 226 11 232 5 5 24 10 42 12 17 1 32 6 32 10 0 4 7 5 15 2 24 -10
120 43 164 89 52 54 80 106 97 178 17 71 19 485 3 495 -8 5 -8 8 0 13 16 10
-42 124 -89 175 -47 50 -144 106 -190 109 -16 1 -30 6 -30 10 0 5 -9 6 -19 2
-11 -3 -23 0 -27 7 -5 7 -9 146 -10 308 0 162 -4 315 -8 340 -10 57 -57 203
-69 211 -5 3 -7 9 -5 12 1 3 -7 17 -19 31 -13 14 -20 26 -17 26 24 0 -152 184
-187 195 -10 4 -19 11 -19 16 0 6 -5 7 -10 4 -6 -3 -10 -3 -10 2 0 4 -12 13
-27 20 -65 28 -111 44 -119 42 -5 -1 -22 1 -38 6 -16 4 -142 8 -280 9 -218 1
-251 3 -248 16 2 8 6 31 8 50 3 19 7 51 9 70 10 68 11 150 2 150 -5 0 -4 6 2
13 6 8 8 17 4 21 -6 5 -11 40 -16 114 -1 12 -5 22 -8 22 -4 0 -9 12 -12 28 -9
45 -12 56 -20 70 -5 6 -6 12 -3 12 11 0 -82 169 -112 206 -17 21 -29 41 -26
46 3 5 2 7 -3 6 -10 -4 -53 38 -53 52 0 6 -3 10 -7 10 -5 0 -24 15 -43 33 -19
18 -51 44 -70 57 -19 13 -37 27 -40 30 -12 15 -193 99 -201 94 -5 -3 -9 -1 -9
4 0 5 -26 15 -57 22 -32 8 -65 15 -73 17 -8 2 -44 6 -80 9 -36 3 -70 7 -77 9
-6 2 -13 2 -15 0z"/>
<path d="M3595 4796 c-22 -6 -51 -19 -65 -28 -13 -10 -29 -18 -35 -18 -5 -1
-23 -19 -40 -41 -16 -22 -36 -46 -43 -54 -29 -32 -50 -120 -46 -195 5 -121 28
-155 252 -381 106 -108 201 -197 210 -198 61 -9 110 -6 132 7 13 9 94 84 179
169 86 84 159 153 164 153 4 0 5 5 2 10 -3 6 -1 10 4 10 19 0 80 103 94 159
17 65 13 161 -8 202 -9 16 -13 29 -10 29 9 0 -34 60 -69 97 -17 17 -34 29 -38
27 -4 -3 -8 -1 -8 4 0 17 -101 53 -159 56 -64 4 -168 -29 -206 -64 -12 -12
-24 -17 -26 -12 -6 14 -86 61 -111 66 -13 3 -23 5 -23 6 0 8 -118 5 -150 -4z
m157 -208 c9 -9 28 -34 41 -55 32 -50 46 -61 88 -68 27 -4 41 -1 62 18 15 12
27 28 27 35 0 7 4 12 9 12 5 0 14 13 20 28 21 51 111 68 162 31 40 -28 58 -67
53 -114 -2 -22 -5 -46 -6 -54 -1 -13 -44 -59 -243 -261 -73 -74 -95 -90 -95
-69 0 6 -63 74 -140 151 -77 77 -148 154 -156 170 -20 39 -21 128 -1 128 6 0
8 3 4 6 -8 8 24 44 48 55 33 14 107 7 127 -13z"/>
</g>
</svg>
