<?xml version="1.0" standalone="no"?>
<!DOCTYPE svg PUBLIC "-//W3C//DTD SVG 20010904//EN"
 "http://www.w3.org/TR/2001/REC-SVG-20010904/DTD/svg10.dtd">
<svg version="1.0" xmlns="http://www.w3.org/2000/svg"
 width="500.000000pt" height="500.000000pt" viewBox="0 0 500.000000 500.000000"
 preserveAspectRatio="xMidYMid meet">
<metadata>
Created by potrace 1.14, written by Peter Selinger 2001-2017
</metadata>
<g transform="translate(0.000000,500.000000) scale(0.100000,-0.100000)"
fill="#000000" stroke="none">
<path d="M2434 4218 c-3 -5 -6 -38 -6 -73 -1 -59 -3 -65 -22 -66 -12 0 -131
-1 -266 -1 -276 -1 -311 -7 -378 -64 -37 -32 -71 -78 -73 -101 -1 -5 -5 -16
-11 -26 -5 -10 -9 -46 -9 -79 0 -40 -5 -65 -15 -75 -7 -8 -14 -12 -14 -9 0 3
-15 -3 -32 -14 -18 -11 -41 -23 -50 -26 -10 -4 -18 -11 -18 -16 0 -5 -4 -6
-10 -3 -5 3 -10 1 -10 -4 0 -6 -5 -11 -11 -11 -12 0 -156 -99 -224 -154 -61
-51 -221 -210 -255 -255 -14 -18 -32 -40 -41 -49 -8 -10 -31 -39 -50 -67 -19
-27 -37 -51 -41 -53 -5 -2 -8 -8 -8 -14 0 -5 -8 -22 -19 -36 -31 -45 -120
-211 -122 -229 0 -5 -7 -19 -14 -33 -14 -25 -63 -154 -71 -185 -1 -5 -13 -53
-27 -106 -14 -52 -28 -113 -31 -135 -4 -22 -8 -49 -10 -59 -12 -62 -19 -193
-21 -370 -2 -110 -3 -205 -4 -211 -1 -9 -118 -50 -153 -54 -4 0 -25 -7 -47
-15 -22 -7 -42 -11 -45 -8 -8 8 -8 7 -10 -247 -2 -118 1 -222 5 -230 4 -8 29
-21 56 -29 26 -8 54 -18 61 -24 6 -5 12 -7 12 -3 0 3 16 0 35 -8 20 -9 36 -15
38 -15 1 0 9 -2 17 -5 51 -19 145 -46 160 -46 9 0 20 -3 24 -7 3 -4 12 -8 19
-9 7 -2 60 -16 120 -33 59 -16 107 -28 107 -25 0 2 11 -1 26 -6 23 -9 68 -20
104 -24 8 -2 25 -6 37 -10 23 -7 35 -10 123 -26 30 -6 66 -12 80 -15 14 -3 41
-7 60 -10 19 -2 47 -7 62 -10 33 -6 67 -12 128 -19 25 -3 61 -9 80 -12 37 -7
59 -9 155 -18 33 -3 83 -8 110 -12 202 -24 998 -24 1125 1 14 3 59 7 100 10
41 3 84 7 95 9 11 2 45 7 76 10 31 4 67 9 80 11 13 3 41 7 64 10 49 7 79 12
125 20 19 4 46 8 60 10 21 3 95 19 335 71 11 2 31 6 45 9 14 4 36 8 49 11 13
3 32 9 43 15 10 5 18 7 18 5 0 -3 19 2 43 10 23 9 49 17 57 18 8 1 35 8 60 15
25 7 50 14 55 15 6 1 48 15 95 31 47 16 87 30 90 30 54 12 122 40 129 53 4 9
8 119 8 245 0 220 -2 233 -29 228 -5 0 -8 3 -8 8 0 5 -15 11 -32 14 -18 2 -58
12 -88 21 -30 9 -63 18 -74 21 -10 2 -20 6 -21 7 -2 2 -5 113 -8 248 -3 135
-7 256 -10 270 -3 14 -8 49 -11 79 -4 29 -8 56 -10 60 -2 3 -7 23 -10 43 -6
36 -13 69 -34 148 -5 19 -19 62 -31 95 -13 33 -24 65 -25 70 -11 35 -35 89
-76 169 -71 139 -84 160 -97 169 -7 4 -13 14 -13 21 0 7 -13 29 -30 47 -16 19
-30 39 -30 46 0 6 -3 13 -8 15 -4 2 -23 23 -42 48 -19 24 -48 59 -65 76 -16
18 -37 40 -45 50 -15 18 -117 111 -185 169 -16 14 -48 38 -70 53 -22 15 -42
29 -45 32 -9 10 -103 67 -165 100 -81 44 -89 53 -91 104 -4 137 -47 209 -154
259 -42 20 -63 21 -319 23 -177 1 -275 5 -280 12 -3 5 -6 38 -6 71 1 34 -2 62
-5 62 -27 6 -132 4 -136 -3z m-7 -1062 c0 -419 2 -767 6 -773 7 -11 115 -12
133 -1 7 5 10 246 9 768 0 419 3 766 6 772 4 6 103 9 263 9 210 0 262 -3 286
-16 57 -30 57 -29 58 -515 0 -245 1 -459 1 -476 l1 -32 70 1 c42 0 70 5 71 11
1 6 2 156 3 333 0 177 4 325 8 329 5 4 16 0 26 -9 10 -10 22 -14 25 -10 4 3 7
1 7 -5 0 -7 5 -12 11 -12 5 0 40 -21 77 -46 169 -117 309 -248 412 -383 14
-18 31 -39 38 -46 6 -8 12 -18 12 -23 0 -6 4 -12 8 -14 10 -4 92 -135 92 -147
0 -5 3 -11 8 -13 9 -4 74 -136 95 -193 8 -22 18 -49 23 -60 24 -64 69 -234 79
-298 3 -27 9 -59 12 -70 3 -12 7 -161 10 -332 2 -170 6 -315 7 -321 2 -5 30
-18 62 -28 33 -10 73 -22 89 -28 17 -6 46 -13 65 -17 l35 -6 0 -135 0 -135
-95 -32 c-77 -27 -172 -55 -295 -87 -5 -1 -30 -8 -55 -15 -25 -7 -54 -15 -65
-18 -11 -2 -31 -7 -45 -10 -14 -3 -34 -7 -45 -8 -11 -2 -20 -4 -20 -5 0 -2
-21 -7 -60 -15 -16 -3 -47 -11 -69 -16 -21 -6 -41 -8 -44 -5 -3 3 -10 2 -16
-3 -6 -5 -33 -12 -60 -15 -27 -4 -52 -9 -55 -11 -3 -2 -28 -6 -56 -9 -27 -3
-61 -8 -75 -11 -14 -3 -45 -8 -70 -11 -25 -3 -56 -7 -70 -10 -14 -3 -41 -6
-60 -8 -19 -2 -57 -6 -85 -9 -216 -26 -351 -31 -695 -31 -342 1 -483 7 -680
29 -30 3 -73 8 -95 10 -46 4 -118 13 -155 20 -14 3 -42 7 -64 10 -21 2 -46 7
-55 9 -9 3 -32 8 -51 11 -138 19 -516 108 -690 162 -47 14 -94 28 -105 30 -10
2 -23 9 -27 16 -4 6 -8 9 -8 5 0 -4 -24 1 -52 11 l-53 18 0 119 c-1 65 1 124
3 131 3 10 14 15 65 28 4 2 8 3 10 5 1 1 9 3 17 5 8 1 35 8 60 16 25 7 54 14
65 16 11 2 24 8 30 14 6 6 10 118 11 292 2 267 6 343 20 429 3 21 6 40 5 43 0
2 5 19 10 37 6 18 13 46 15 61 3 15 19 67 35 115 17 48 31 93 31 100 1 6 4 12
8 12 4 0 7 6 7 13 0 16 101 218 121 240 8 9 12 17 8 17 -6 0 2 11 32 45 6 7
12 18 12 24 0 5 6 16 13 23 7 7 26 31 42 53 58 78 217 243 300 310 28 22 52
43 53 47 2 5 8 6 13 2 5 -3 9 -1 9 4 0 5 16 17 35 28 19 10 35 21 35 25 0 3
20 16 45 28 25 12 45 27 45 32 0 6 4 8 9 4 5 -3 12 -1 16 5 19 31 24 -26 24
-268 0 -147 0 -297 1 -335 l0 -68 58 2 c31 0 64 3 72 5 14 3 16 60 15 471 0
439 1 470 19 503 10 19 26 40 34 46 11 8 96 12 271 13 141 1 257 4 260 6 2 3
10 0 17 -6 10 -8 12 -172 11 -773z"/>
<path d="M1222 1699 c-14 -5 -17 -19 -16 -69 1 -34 6 -65 12 -69 8 -5 2545 -7
2573 -2 5 1 5 93 0 136 -1 11 -2539 15 -2569 4z"/>
</g>
</svg>
